<?xml version="1.0" standalone="no"?>
<!DOCTYPE svg PUBLIC "-//W3C//DTD SVG 20010904//EN"
 "http://www.w3.org/TR/2001/REC-SVG-20010904/DTD/svg10.dtd">
<svg version="1.0" xmlns="http://www.w3.org/2000/svg"
 width="700.000000pt" height="700.000000pt" viewBox="0 0 700.000000 700.000000"
 preserveAspectRatio="xMidYMid meet">
<metadata>
Created by potrace 1.14, written by Peter Selinger 2001-2017
</metadata>
<g transform="translate(0.000000,700.000000) scale(0.100000,-0.100000)"
fill="#000000" stroke="none">
<path d="M960 6980 c-253 -48 -435 -144 -615 -325 -55 -55 -119 -128 -142
-162 -91 -135 -166 -326 -192 -488 -6 -37 -10 -990 -10 -2495 0 -2079 2 -2446
15 -2510 57 -300 210 -555 434 -723 30 -23 57 -44 60 -47 27 -27 196 -109 288
-140 191 -63 4 -59 2732 -57 l2485 2 95 27 c285 79 490 215 659 438 82 109
174 299 195 403 3 12 11 56 20 97 13 66 15 372 13 2545 l-2 2470 -27 96 c-64
227 -153 386 -301 538 -152 156 -346 266 -572 323 l-90 22 -2475 2 c-2349 2
-2480 1 -2570 -16z m5030 -344 c158 -34 295 -104 400 -206 133 -128 198 -244
247 -435 12 -48 14 -4880 2 -4945 -31 -164 -109 -309 -229 -430 -135 -135
-298 -216 -479 -236 -66 -8 -4807 -8 -4861 0 -141 20 -255 63 -370 139 -72 48
-191 177 -238 260 -38 66 -75 158 -99 245 -4 15 -9 1120 -10 2457 -3 2616 -5
2494 47 2633 96 255 311 446 578 512 74 18 160 18 2512 19 2037 1 2446 -2
2500 -13z"/>
<path d="M1125 6518 c-205 -43 -353 -133 -486 -298 -81 -100 -151 -267 -166
-395 -8 -76 -8 -4540 0 -4615 40 -354 321 -646 677 -704 58 -9 608 -12 2380
-11 l2305 2 80 22 c91 24 203 75 271 122 49 33 142 123 182 174 75 96 147 274
159 393 8 79 8 4546 0 4612 -8 71 -36 168 -67 236 -103 228 -301 391 -554 456
l-81 21 -2310 1 c-2129 1 -2315 0 -2390 -16z m4735 -110 c153 -43 254 -100
350 -197 114 -116 178 -241 199 -392 8 -64 6 -4597 -3 -4645 -9 -49 -53 -161
-88 -223 -18 -31 -68 -92 -113 -137 -91 -92 -195 -151 -325 -184 -73 -19 -132
-20 -2376 -20 -2268 0 -2301 0 -2380 20 -43 11 -117 39 -164 62 -118 58 -237
177 -297 298 -83 166 -76 -74 -78 2500 -1 1310 2 2316 8 2345 26 148 90 269
196 376 75 75 164 133 251 165 122 43 53 42 2485 40 1271 -1 2321 -5 2335 -8z"/>
<path d="M1415 5821 c-107 -35 -188 -111 -226 -210 l-22 -56 -1 -1305 c0 -718
1 -1354 4 -1415 4 -95 9 -118 34 -168 35 -73 90 -128 164 -164 l57 -28 790 0
790 0 67 33 c214 105 260 395 88 556 -109 102 -110 102 -752 102 -352 -1 -538
2 -539 9 -3 40 -1 1956 2 1960 3 2 259 5 569 7 l565 3 57 28 c178 87 252 288
170 460 -48 98 -110 154 -213 189 -40 14 -142 16 -800 16 -677 0 -759 -2 -804
-17z"/>
<path d="M3415 4551 c-164 -40 -282 -212 -262 -382 17 -141 131 -266 272 -297
22 -5 205 -8 407 -8 l368 1 2 -1205 3 -1205 33 -67 c38 -77 91 -128 172 -166
79 -38 201 -38 280 0 81 38 134 89 172 166 l33 67 3 1199 c1 660 5 1202 7
1204 3 3 177 6 387 7 368 1 385 2 439 23 32 13 76 42 105 70 160 151 146 401
-29 532 -97 74 -24 70 -1257 69 -608 -1 -1118 -4 -1135 -8z"/>
</g>
</svg>
